<svg width="94" height="85" viewBox="0 0 94 85" fill="none" xmlns="http://www.w3.org/2000/svg">
<path d="M9.12094 0H71.0453C73.5513 0 75.8297 1.03547 77.4766 2.6823L77.6289 2.84938C79.195 4.4907 80.1644 6.71402 80.1644 9.12277V35.3051C77.6253 34.578 74.9448 34.1852 72.1725 34.1852C70.8415 34.1852 69.5325 34.277 68.2491 34.4514L75.2569 27.9301V9.12277C75.2569 8.03039 74.8236 7.01328 74.1186 6.25504L74.0085 6.15223C73.2447 5.38848 72.1927 4.90562 71.0453 4.90562H9.12094C8.0102 4.90562 7.00043 5.33707 6.2532 6.03289L6.14672 6.14672C5.38297 6.91047 4.90562 7.96613 4.90562 9.12277V41.7896C10.3363 36.8932 19.0295 30.0488 24.5171 25.4351C25.413 24.6603 26.7459 24.6768 27.6254 25.4277C27.8034 25.5764 27.9356 25.7564 28.0843 25.9326L40.8698 45.3238L45.4395 31.4147C45.8048 29.4723 48.0997 28.8279 49.4895 30.1186L57.7531 38.0314C56.3247 38.8539 54.9771 39.7976 53.7159 40.8441L49.462 36.761L44.7987 51.2245C44.505 53.2716 41.964 54.0482 40.5907 52.4693L25.8537 30.7428L4.90562 48.309V62.9378C4.90562 64.0871 5.38848 65.1391 6.15223 65.9028C6.92148 66.6739 7.98082 67.1549 9.12094 67.1549H43.5521C43.7889 68.8403 44.1708 70.4798 44.6867 72.0605H9.12094C6.62773 72.0605 4.34016 71.0287 2.6823 69.3727C1.03547 67.7241 0 65.4438 0 62.9378V9.12277C0 6.61305 1.02629 4.32914 2.6768 2.6768L2.8457 2.52441C4.48887 0.963867 6.69934 0 9.12094 0ZM72.1725 41.2627C78.1999 41.2627 83.6582 43.7063 87.6054 47.6554C91.5564 51.6064 94 57.0628 94 63.0902C94 69.1175 91.5564 74.5776 87.6073 78.5249C83.6582 82.4758 78.1999 84.9195 72.1725 84.9195C66.147 84.9195 60.6888 82.4758 56.7378 78.5249C52.7887 74.5776 50.3451 69.1175 50.3451 63.0902C50.3451 57.0683 52.7887 51.6155 56.7378 47.6646C60.6979 43.7063 66.1507 41.2627 72.1725 41.2627ZM70.5991 53.3982H73.7496C74.495 53.3982 75.1064 54.017 75.1064 54.7532V60.1618H80.5114C81.2568 60.1618 81.8681 60.7861 81.8681 61.5186V64.6672C81.8681 65.4053 81.2494 66.0258 80.5114 66.0258H75.1064V71.4308C75.1064 72.1689 74.4877 72.7876 73.7496 72.7876H70.5991C69.8611 72.7876 69.2424 72.178 69.2424 71.4308V66.0258H63.8319C63.0938 66.0258 62.4751 65.4145 62.4751 64.6672V61.5186C62.4751 60.7714 63.0846 60.1618 63.8319 60.1618H69.2424V54.7532C69.2424 54.0078 69.8519 53.3982 70.5991 53.3982ZM84.6257 50.6352C81.4422 47.4516 77.0359 45.478 72.1725 45.478C67.3073 45.478 62.9011 47.448 59.7139 50.6315C56.5303 53.8168 54.5604 58.2249 54.5604 63.0902C54.5604 67.9536 56.534 72.3616 59.7175 75.5452C62.9047 78.7323 67.311 80.7041 72.1725 80.7041C77.0359 80.7041 81.4422 78.7323 84.6275 75.5452C87.8129 72.3616 89.7847 67.9536 89.7847 63.0902C89.7847 58.2286 87.8129 53.8223 84.6257 50.6352ZM49.1848 11.2249C51.2116 11.2249 53.0512 12.0474 54.3823 13.3785C55.7134 14.7095 56.5359 16.5473 56.5359 18.576C56.5359 20.6011 55.7134 22.4425 54.3823 23.7736C53.0512 25.1046 51.2116 25.9271 49.1848 25.9271C47.1561 25.9271 45.3183 25.1046 43.9872 23.7736C42.6562 22.4425 41.8337 20.6011 41.8337 18.576C41.8337 16.5473 42.6562 14.7095 43.9872 13.3785C45.3183 12.0474 47.1561 11.2249 49.1848 11.2249ZM51.4283 16.3325C50.8329 15.7383 50.0259 15.4048 49.1848 15.4054C48.309 15.4054 47.5141 15.7615 46.9412 16.3325C46.3475 16.9281 46.0147 17.7351 46.0159 18.576C46.0159 19.4518 46.3703 20.2467 46.9412 20.8195C47.5141 21.3905 48.309 21.7467 49.1848 21.7467C50.0605 21.7467 50.8555 21.3905 51.4283 20.8195C51.9993 20.2467 52.3554 19.4518 52.3554 18.576C52.3554 17.7003 51.9993 16.9053 51.4283 16.3325Z" fill="black"/>
</svg>
