<svg width="40" height="40" viewBox="0 0 40 40" fill="none" xmlns="http://www.w3.org/2000/svg">
<g clip-path="url(#clip0_111_175)">
<path fill-rule="evenodd" clip-rule="evenodd" d="M6.65301 0H38.7163V31.3608C38.6584 32.2367 37.3657 32.257 35.9715 32.2024H6.17906C1.51715 32.2024 1.51715 37.6993 6.17906 37.6993H37.2552V34.7545L40 34.7521V38.5854C40 39.3419 39.2944 39.9602 38.4285 39.9602H6.31359C2.50601 40.2529 0 38.925 0 35.881V5.83028C0 2.62316 2.99332 0 6.65301 0ZM16.9185 9.66742C16.9114 8.87033 16.8258 8.30041 17.9555 8.31525L21.6107 8.3535C22.7893 8.34726 23.102 8.67515 23.0886 9.64322V13.3968H27.3399C28.2494 13.3906 28.8989 13.3156 28.8802 14.3056L28.8383 17.508C28.8454 18.5417 28.4695 18.8157 27.3648 18.804H23.0886V22.5513C23.102 23.5194 22.7893 23.8489 21.6107 23.8426L17.9555 23.8816C16.8258 23.8957 16.9114 23.3266 16.9185 22.5295V18.804H12.637C11.5305 18.8157 11.1563 18.5417 11.1635 17.508L11.1198 14.3056C11.1029 13.3156 11.7532 13.3906 12.6628 13.3968H16.9185V9.66742Z" fill="#10A64A"/>
</g>
<defs>
<clipPath id="clip0_111_175">
<rect width="40" height="40" fill="white"/>
</clipPath>
</defs>
</svg>
