<svg width="37" height="31" viewBox="0 0 37 31" fill="none" xmlns="http://www.w3.org/2000/svg">
<path d="M1.63387 5.48954L2.60797 5.48925V3.09661C2.60797 2.85647 2.70614 2.63778 2.86369 2.47993C3.02271 2.3215 3.24111 2.22333 3.48155 2.22333H4.43184V0.873283C4.43184 0.633137 4.52972 0.414449 4.68727 0.256606C4.84599 0.0978805 5.06468 0 5.30483 0H15.9603C16.2004 0 16.4191 0.0978805 16.5773 0.256312C16.7357 0.413567 16.8339 0.631961 16.8339 0.873283V2.22333H30.9883C31.2297 2.22333 31.4483 2.32121 31.6059 2.47876C31.7637 2.6366 31.8616 2.85529 31.8616 3.09661V5.48925H32.8439C33.085 5.48925 33.3037 5.58742 33.4615 5.74497C33.6191 5.90281 33.7172 6.1215 33.7172 6.36282C33.7128 6.43278 33.7105 6.46717 33.6981 6.53478L32.7611 13.4232C35.2439 15.0848 36.8794 17.9151 36.8794 21.1269C36.8794 26.2426 32.7322 30.3903 27.616 30.3903C24.1352 30.3903 21.1033 28.4697 19.5204 25.6309H4.86833C4.56176 25.6309 4.27341 25.5703 4.01063 25.461C3.73521 25.3464 3.4886 25.1773 3.27873 24.9692C3.07445 24.7661 2.90631 24.5225 2.78169 24.2538C2.65823 23.9881 2.57681 23.6965 2.54389 23.3932L0.765287 6.45365C0.740597 6.21497 0.815256 5.98747 0.956346 5.81434C1.09655 5.64151 1.30378 5.52099 1.54333 5.49689L1.63387 5.48954ZM31.8975 19.7701H31.8963L31.8954 19.7698H31.8945L31.8937 19.7695H31.8931H31.8925H31.8913L31.8904 19.7692H31.8895L31.8887 19.7689H31.8875H31.8866L31.8854 19.7686H31.8845L31.8837 19.7683H31.8825H31.8816H31.8813H31.8804L31.8795 19.768H31.8787L31.8775 19.7678H31.8766H31.8754L31.8745 19.7675H31.8737H31.8725H31.8716L31.8704 19.7672H31.8695H31.8693H31.8684L31.8675 19.7669H31.8666H31.8654H31.8646H31.8634L31.8625 19.7666H31.8616H31.8604H31.8596L31.8584 19.7663H31.8575H31.8572H31.8563H31.8554H31.8546H31.8534H31.8525L31.8513 19.766H31.8504H31.8493H31.8484H31.8472H31.8463H31.8452H31.8443L31.8431 19.7657H31.8422H31.8413H31.8402H31.8381H31.8372H31.836H31.8352H31.834H31.8331H30.1371H28.9752V16.9078C28.9752 16.6544 28.7676 16.446 28.5134 16.446H26.7157C26.4623 16.446 26.2536 16.6544 26.2536 16.9078V19.7657H23.3957C23.1423 19.7657 22.9339 19.9741 22.9339 20.2286V22.0252C22.9339 22.2797 23.1423 22.4881 23.3957 22.4872H26.2548V23.8864V25.3452V25.3502V25.3552V25.3572L26.2551 25.3605V25.3655L26.2554 25.3693V25.3708L26.2557 25.3758L26.256 25.3807V25.3813L26.2566 25.3857L26.2568 25.3907L26.2571 25.3931L26.2574 25.396L26.258 25.4007L26.2586 25.4049V25.406L26.2592 25.4107L26.2601 25.4157V25.4166L26.261 25.4207L26.2616 25.4257L26.2621 25.4284L26.2624 25.4304L26.2636 25.4354L26.2642 25.4398L26.2645 25.4404L26.2657 25.4451L26.2666 25.4501L26.2668 25.4513L26.2677 25.4548L26.2689 25.4595L26.2698 25.4628L26.2701 25.4645L26.2715 25.4692L26.2727 25.4739L26.2742 25.4786L26.2757 25.4833L26.276 25.4851L26.2771 25.488L26.2786 25.4927L26.2798 25.496L26.2801 25.4974L26.2818 25.5021L26.2836 25.5066V25.5071L26.2851 25.5113L26.2868 25.5157L26.2877 25.5177L26.2889 25.5204L26.2907 25.5248L26.2921 25.5286L26.2924 25.5295L26.2945 25.5339L26.2965 25.5383L26.2968 25.5389L26.2986 25.5427L26.3006 25.5471L26.3015 25.5495L26.3027 25.5515L26.3048 25.5559L26.3068 25.5598L26.3071 25.56L26.3092 25.5645L26.3115 25.5686L26.3121 25.5697L26.3139 25.573L26.3162 25.5771L26.3177 25.5797L26.3186 25.5812L26.3212 25.5856L26.3236 25.5894L26.3262 25.5939L26.3289 25.598L26.3297 25.5991L26.3315 25.6018L26.3342 25.6059L26.3359 25.6088L26.3368 25.61L26.3394 25.6138L26.3424 25.618V25.6182L26.345 25.6218L26.348 25.6256L26.3491 25.6274L26.3509 25.6294L26.3538 25.6332L26.3562 25.6365L26.3568 25.6371C26.4417 25.7443 26.5728 25.814 26.7189 25.814H28.5157C28.6618 25.814 28.7932 25.7449 28.8782 25.6371L28.8785 25.6368L28.8811 25.6332L28.884 25.6294L28.8852 25.6279L28.887 25.6256L28.8896 25.6218L28.892 25.6185L28.8926 25.618L28.8952 25.6138L28.8982 25.61L28.8984 25.6091L28.9008 25.6059L28.9034 25.6021L28.9061 25.598L28.9084 25.5939L28.9111 25.59V25.5842L28.9137 25.58L28.9161 25.5759L28.9167 25.5747L28.9184 25.5715L28.9208 25.5674L28.9223 25.5648L28.9231 25.5633L28.9255 25.5589L28.9275 25.5548L28.9278 25.5545L28.9299 25.5504L28.932 25.5459L28.9328 25.5442L28.934 25.5415L28.9361 25.5371L28.9378 25.5339L28.9381 25.5327L28.9402 25.5283L28.9408 25.5274L28.9437 25.5204L28.944 25.5198L28.9458 25.5151L28.9467 25.513L28.9475 25.5107L28.9493 25.506L28.9508 25.5021L28.9511 25.5016L28.9528 25.4969L28.9543 25.4921L28.9549 25.4913L28.9561 25.4877L28.9575 25.483L28.9584 25.4801L28.959 25.4783L28.9605 25.4736L28.9616 25.4689H28.9619L28.9631 25.4642L28.9643 25.4592L28.9649 25.4578L28.9658 25.4545L28.9669 25.4498L28.9675 25.4463L28.9678 25.4448L28.969 25.4401L28.9702 25.4351V25.4348L28.9711 25.4304L28.9719 25.4254L28.9722 25.4234L28.9728 25.4204L28.9737 25.4157L28.9743 25.4116L28.9746 25.4107L28.9752 25.4057L28.9758 25.4007L28.976 25.3999L28.9763 25.3957L28.9769 25.3907L28.9772 25.3881L28.9775 25.3857L28.9781 25.3807L28.9784 25.376V25.3755L28.9787 25.3705L28.979 25.3655L28.9793 25.364V25.3602L28.9796 25.3552V25.3519L28.9799 25.3502V25.3449V25.3399V23.8811V22.482H29.7717H31.5306H31.8375C32.0909 22.482 32.2993 22.2733 32.2993 22.0199V20.2222C32.2963 19.9953 32.1223 19.801 31.8975 19.7701ZM31.1197 12.5499L31.8416 7.2411L3.44804 7.23846H2.60209L4.27929 23.2212C4.29016 23.3244 4.31632 23.422 4.35542 23.509C4.39451 23.596 4.44683 23.6739 4.50856 23.7368C4.55676 23.7844 4.61261 23.8229 4.67375 23.8482L4.68462 23.8535C4.7393 23.8746 4.80014 23.8864 4.86598 23.8864H18.7709C18.4993 23.0146 18.3529 22.0878 18.3529 21.1263C18.3529 16.0104 22.5004 11.8629 27.6163 11.8629C28.8561 11.8632 30.0389 12.1075 31.1197 12.5499ZM4.35453 3.97254V5.48543L30.115 5.21207V3.97225H15.9603C15.719 3.97225 15.5006 3.87436 15.3424 3.71623C15.1849 3.55868 15.0867 3.33999 15.0867 3.09896V1.74921H6.17752V3.09926C6.17752 3.33911 6.07964 3.5575 5.9218 3.71564C5.76219 3.87495 5.54409 3.97254 5.30424 3.97254H4.35453Z" fill="#10A64A"/>
</svg>
