<svg width="44" height="42" viewBox="0 0 44 42" fill="none" xmlns="http://www.w3.org/2000/svg">
<g clip-path="url(#clip0_110_186)">
<path d="M22 0C28.0741 0 33.5741 2.35188 37.5555 6.15164C41.5362 9.95141 44 15.2015 44 20.9996C44 26.7977 41.5362 32.0486 37.5555 35.8484C33.5741 39.6489 28.0741 42 22 42C15.9259 42 10.4259 39.6489 6.44445 35.8484C2.46383 32.0486 0 26.7977 0 20.9996C0 15.2015 2.46383 9.95141 6.44445 6.15164C10.4259 2.35188 15.9259 0 22 0Z" fill="#00AB42"/>
<path fill-rule="evenodd" clip-rule="evenodd" d="M20.168 10.7126H23.8324C24.7012 10.7126 25.4119 11.3927 25.4119 12.2212V17.7437H31.1972C32.0661 17.7437 32.7768 18.427 32.7768 19.2514V22.7485C32.7768 23.5762 32.0635 24.2563 31.1972 24.2563H25.4119V29.7787C25.4119 30.6073 24.7004 31.2873 23.8324 31.2873H20.168C19.3 31.2873 18.5885 30.6089 18.5885 29.7787V24.2563H12.8032C11.9369 24.2563 11.2236 23.5787 11.2236 22.7485V19.2514C11.2236 18.4213 11.9343 17.7437 12.8032 17.7437H18.5885V12.2212C18.5885 11.3911 19.2992 10.7126 20.168 10.7126Z" fill="white"/>
</g>
<defs>
<clipPath id="clip0_110_186">
<rect width="44" height="42" fill="white"/>
</clipPath>
</defs>
</svg>
