<svg width="71" height="82" viewBox="0 0 71 82" fill="none" xmlns="http://www.w3.org/2000/svg">
<path d="M0 13.8797C0 6.21416 6.21415 0 13.8797 0H57.1203C64.7858 0 71 6.21415 71 13.8797V59.0952C71 66.7608 64.7858 72.9749 57.1203 72.9749H13.8797C6.21415 72.9749 0 66.7608 0 59.0952V13.8797Z" fill="#25F452"/>
<path fill-rule="evenodd" clip-rule="evenodd" d="M35.1286 36.8323L31.4441 33.0024L19.9307 48.8252L20.4873 49.4037L35.1286 36.8323Z" fill="#F6EEEE"/>
<path fill-rule="evenodd" clip-rule="evenodd" d="M52.9474 25.8951L43.0852 16.6826C42.2468 15.8997 40.9137 16.7087 40.5141 17.3977C40.447 17.5151 40.5672 17.6221 40.4582 18.4207C40.339 19.4314 40.0836 20.424 39.6981 21.375L35.3133 25.4723C33.5611 27.106 31.0571 26.3805 28.922 25.3888C28.4693 25.18 27.8908 24.7181 27.3906 25.1852L25.5349 26.9181C25.47 26.9785 25.4184 27.0502 25.3832 27.1293C25.348 27.2083 25.3299 27.2931 25.3299 27.3787C25.3299 27.4643 25.348 27.5491 25.3832 27.6281C25.4184 27.7072 25.47 27.7789 25.5349 27.8393L41.1233 42.3965C41.2543 42.5184 41.4317 42.5869 41.6166 42.5869C41.8015 42.5869 41.9789 42.5184 42.1098 42.3965L43.9655 40.6636C44.4601 40.2017 43.8285 39.6041 43.5714 39.0978C42.6213 37.2709 41.7689 34.8152 43.3534 33.3354L47.9338 29.0581C48.9733 28.7664 50.0331 28.5423 51.1057 28.3874C51.9693 28.2595 52.0755 28.3587 52.1984 28.283C52.9558 27.8289 53.7914 26.678 52.9474 25.8898V25.8951Z" fill="white"/>
<path fill-rule="evenodd" clip-rule="evenodd" d="M66.5011 48.676C67.0326 50.3297 66.3786 51.5127 66.3144 51.8683L66.0843 52.3215C65.6199 53.3182 64.3047 54.1884 63.0605 54.4327L57.5192 55.4727C55.3886 55.8708 53.0526 54.8264 51.8216 52.9276L51.8106 52.9283C51.7772 54.2986 51.2589 54.9117 51.2088 55.1056C50.7422 56.1051 49.4315 56.9696 48.185 57.2168L42.6405 58.2542C40.3573 58.681 37.9546 57.4717 36.7833 55.4521L36.7801 55.4823C36.6669 57.1492 35.5838 57.9694 35.3874 58.2624L34.9935 58.5815C34.1648 59.3039 32.5658 59.6087 31.2654 59.3741L25.508 58.3046C23.2961 57.8955 21.4331 56.1182 20.9612 53.9838L20.9502 53.9845C20.4002 55.1937 19.663 55.5589 19.5422 55.7109C18.7112 56.4362 17.1169 56.7352 15.8142 56.5035L10.059 55.4311C7.26984 54.9111 5.17553 52.3062 5.41199 49.6204C5.66059 48.1821 6.05248 47.2309 7.24002 46.3905C8.26892 45.6582 9.58836 45.3846 10.9357 45.6189L16.8017 46.709C18.3247 47.0822 18.762 47.4608 19.7698 48.3515L20.1393 48.7698L21.1989 50.8646C21.2126 50.9128 21.224 50.9639 21.2345 51.0096L21.2454 51.0089C22.0949 49.135 24.1792 48.0884 26.387 48.4895L32.1422 49.562C33.4868 49.8128 34.7349 50.5712 35.5905 51.6404C35.7593 51.8206 35.9107 52.0291 36.0516 52.2574L36.1009 52.2543C36.1573 51.673 36.3427 51.119 36.6955 50.5245C37.3363 49.4432 38.408 48.7027 39.6974 48.4474L45.3431 47.3872C46.8431 47.2004 47.3757 47.4068 48.616 47.9068L49.1071 48.1785L50.8478 49.8218C50.877 49.8635 50.9071 49.9107 50.9331 49.95L50.9463 49.9464C50.9937 47.8257 52.4596 46.0658 54.5797 45.6547L60.1187 44.6176C61.4131 44.3756 62.8165 44.6636 63.9839 45.3862C65.0564 45.9403 66.0972 47.3195 66.4709 48.5634L66.5011 48.676ZM32.4806 55.6921C31.5906 55.7261 30.7615 55.0423 30.6377 54.1643C30.514 53.2863 31.1325 52.547 32.0257 52.5155C32.3362 52.5042 32.6435 52.4904 32.9476 52.474C32.8044 52.3794 32.6521 52.2963 32.4939 52.2272C32.41 52.1889 32.3215 52.1563 32.234 52.129L32.2253 52.1269C32.1346 52.0971 32.0393 52.0731 31.9426 52.0574L31.9057 52.0515L26.1993 50.9896C25.7196 50.8998 25.2505 50.9538 24.8433 51.1129C24.7604 51.1453 24.6783 51.1832 24.6104 51.2229C24.537 51.2629 24.459 51.3087 24.3897 51.3567L24.3596 51.3749L24.3574 51.3778L24.3551 51.3806C24.278 51.4318 24.2083 51.4934 24.1385 51.555L25.3117 51.773L25.3432 51.7792L25.3833 51.7876L25.3888 51.7873C25.791 51.8765 26.148 52.1076 26.3888 52.4195C26.6319 52.7286 26.7752 53.1175 26.7479 53.5117L26.7488 53.5171L26.7447 53.5419L26.7456 53.5473L26.7466 53.5527L26.7443 53.5555L26.7452 53.5609L26.7457 53.58C26.6833 54.1426 26.2968 54.5702 25.7807 54.7225C25.6781 54.7535 25.5705 54.7712 25.4556 54.7784C25.3462 54.7852 25.2349 54.7813 25.1241 54.7637L25.1187 54.7641L25.11 54.7619L25.1045 54.7622L25.0731 54.756L25.0699 54.7535L23.8739 54.5315L23.9519 54.6492L23.9551 54.6518L24.0312 54.7587L24.049 54.7821L24.0522 54.7847C24.3437 55.1507 24.729 55.4508 25.1704 55.6412C25.2543 55.6795 25.3428 55.7121 25.439 55.7415C25.5233 55.7662 25.6218 55.7927 25.7217 55.811L25.7586 55.8168L31.4705 56.8784C31.9502 56.9682 32.417 56.9171 32.8264 56.7551C32.9117 56.7198 32.9915 56.6848 33.0626 56.6476C33.136 56.6076 33.2139 56.5618 33.2832 56.5139L33.2933 56.5078L33.3101 56.4931C33.621 56.2719 33.869 55.9729 34.0271 55.6169C33.5183 55.6488 33.0054 55.6728 32.4806 55.6921ZM38.5679 51.9496C39.0881 51.8706 39.6097 51.7834 40.1349 51.685C40.9998 51.519 41.9114 52.0859 42.1688 52.9528C42.4284 53.8169 41.9334 54.6492 41.0685 54.8152C40.4389 54.9338 39.8097 55.0387 39.1755 55.1303C39.3698 55.3306 39.5878 55.5078 39.8199 55.654C40.4693 56.0602 41.2494 56.2429 42.0044 56.0974L47.5061 55.0681C48.262 54.928 48.8587 54.4845 49.2147 53.8925C49.3733 53.6209 49.4849 53.3168 49.5382 52.9946L47.7802 53.323C47.145 53.4419 46.4765 53.0205 46.289 52.3863C46.1014 51.7522 46.4679 51.1405 47.1007 51.0244L48.8587 50.6961C48.6307 50.4269 48.3612 50.1904 48.0616 50.0048C47.4122 49.5985 46.6298 49.4187 45.8771 49.5613L45.81 49.5737L40.3754 50.5907L40.3458 50.5952C39.6017 50.74 39.015 51.1775 38.6668 51.7663C38.6331 51.8283 38.6016 51.8875 38.5679 51.9496ZM15.8125 51.5133C15.7534 52.1439 16.2451 52.7617 16.9016 52.884L18.726 53.2247C18.5532 53.4945 18.3326 53.7263 18.0732 53.9089C17.5052 54.3097 16.7589 54.4901 15.9764 54.343L10.2646 53.2814C9.47984 53.1372 8.79126 52.6952 8.31967 52.098C7.85538 51.5112 7.59578 50.7779 7.65078 50.0413L7.65441 49.9975C7.72308 49.2437 8.10866 48.6145 8.67668 48.2136C9.23694 47.816 9.97233 47.6363 10.7475 47.773L10.7757 47.7766L16.4192 48.8261L16.4876 48.8382C17.27 48.9853 17.9586 49.4272 18.4325 50.0216C18.6505 50.2968 18.8238 50.6021 18.942 50.9245L17.1154 50.5867C16.462 50.4669 15.8717 50.8828 15.8125 51.5133ZM55.7607 52.1899L54.6082 52.4039L54.7222 52.4894L54.7254 52.492L54.8375 52.5667L54.8407 52.5692L54.8685 52.5865L54.8717 52.5891C55.2708 52.8393 55.7308 52.993 56.1964 53.0156C56.2857 53.0209 56.3796 53.0205 56.4781 53.0143C56.5657 53.0088 56.6578 52.9976 56.7544 52.9806L56.7895 52.9757L62.288 51.9438C62.7517 51.8575 63.1487 51.6391 63.4514 51.3366C63.5157 51.2753 63.5736 51.209 63.6214 51.1488C63.6716 51.0857 63.7199 51.0118 63.7682 50.9379L63.775 50.9293L63.7855 50.9095C64.0029 50.5443 64.1145 50.1094 64.0903 49.6558C64.0866 49.5688 64.0742 49.4796 64.0628 49.3959L64.061 49.3851C64.0455 49.2934 64.0245 49.202 64.0003 49.1082L63.9976 49.092L63.9948 49.0758L63.9848 49.0492C63.847 48.5945 63.5852 48.1912 63.2431 47.8693L63.2368 47.8642C63.1647 47.7979 63.0958 47.7341 63.0265 47.6839C62.9563 47.6283 62.8751 47.5735 62.7971 47.5211L62.7844 47.511L62.7661 47.5013C62.3671 47.251 61.907 47.0973 61.4415 47.0747C61.3521 47.0694 61.2582 47.0699 61.1762 47.075L61.1652 47.0757C61.0722 47.0816 60.9801 47.0928 60.8857 47.1069L60.8506 47.1118L55.3544 48.1408C54.8908 48.2271 54.4937 48.4456 54.191 48.748C54.1299 48.8118 54.0711 48.8727 54.0242 48.9383C53.974 49.0015 53.9257 49.0753 53.8774 49.1492L53.8624 49.1747L53.8601 49.1776L53.8578 49.1805C53.8104 49.2597 53.7685 49.3387 53.7307 49.4255L54.8591 49.2157L54.891 49.2083L54.9316 49.203L54.9371 49.2027C55.331 49.1452 55.7341 49.2399 56.0688 49.4533C56.4058 49.6638 56.6767 49.9902 56.8035 50.3801L56.8067 50.3827L56.8135 50.4068L56.8145 50.4122L56.8154 50.4176L56.8131 50.4204L56.8163 50.4229L56.8222 50.4417C56.9792 51.0096 56.796 51.5607 56.3908 51.8941C56.311 51.9618 56.2207 52.0166 56.1209 52.0637C56.0265 52.1105 55.9271 52.144 55.8182 52.1699L55.8127 52.1703L55.8018 52.1709L55.7995 52.1738L55.7676 52.1813L55.7607 52.1899Z" fill="white"/>
</svg>
