<svg width="58" height="58" viewBox="0 0 58 58" fill="none" xmlns="http://www.w3.org/2000/svg">
<g clip-path="url(#clip0_120_203)">
<path fill-rule="evenodd" clip-rule="evenodd" d="M37.4631 17.1621L40.9889 20.688C41.1319 20.8344 41.212 21.0309 41.212 21.2355C41.212 21.4401 41.1319 21.6367 40.9889 21.783L35.3249 27.4471C35.2783 27.493 35.226 27.5327 35.1691 27.5651L39.8608 32.2568C40.031 32.4329 40.1261 32.6681 40.1261 32.9129C40.1261 33.1577 40.031 33.393 39.8608 33.569L38.9168 34.513C38.7408 34.6832 38.5056 34.7783 38.2607 34.7783C38.0159 34.7783 37.7807 34.6832 37.6047 34.513L23.3831 20.2537C23.2116 20.0775 23.1156 19.8412 23.1156 19.5953C23.1156 19.3493 23.2116 19.1131 23.3831 18.9368L24.3271 17.9928C24.5032 17.8227 24.7384 17.7276 24.9832 17.7276C25.2281 17.7276 25.4633 17.8227 25.6393 17.9928L30.5907 22.9772C30.625 22.9205 30.6663 22.8682 30.7134 22.8214L36.3774 17.1574C36.5238 17.0144 36.7203 16.9343 36.925 16.9343C37.1296 16.9343 37.3261 17.0144 37.4725 17.1574L37.4631 17.1621ZM36.1414 34.716L29.4248 43.5094L26.5078 40.5924L28.7121 35.6977L25.1626 39.2472L22.1323 36.217L24.3366 31.3223L20.7918 34.8717L18.0306 32.0963L21.5801 28.5469L16.6854 30.77L14.5566 28.6413L23.3501 21.9246L36.1414 34.716ZM37.2412 19.0218L39.1292 20.9098C39.2301 21.0115 39.2867 21.1489 39.2867 21.2921C39.2867 21.4354 39.2301 21.5728 39.1292 21.6745L38.5817 22.222C38.4794 22.3218 38.3422 22.3776 38.1994 22.3776C38.0565 22.3776 37.9193 22.3218 37.8171 22.222L35.929 20.334C35.8282 20.2323 35.7715 20.0949 35.7715 19.9517C35.7715 19.8084 35.8282 19.671 35.929 19.5693L36.4766 19.0218C36.5262 18.9714 36.5853 18.9314 36.6506 18.9041C36.7158 18.8768 36.7858 18.8627 36.8565 18.8627C36.9272 18.8627 36.9973 18.8768 37.0625 18.9041C37.1277 18.9314 37.1869 18.9714 37.2365 19.0218H37.2412Z" fill="#6E6E6E"/>
<path fill-rule="evenodd" clip-rule="evenodd" d="M58 6.26815V10.5587C57.9988 10.9193 57.8553 11.2648 57.6008 11.5202C57.3462 11.7756 57.0012 11.9203 56.6406 11.9228H1.3641C1.0027 11.9215 0.656457 11.7774 0.400909 11.5219C0.14536 11.2663 0.00124407 10.9201 0 10.5587L0 6.26815C0.00124407 5.90675 0.14536 5.56051 0.400909 5.30496C0.656457 5.04941 1.0027 4.9053 1.3641 4.90405H56.6406C57.002 4.9053 57.3483 5.04941 57.6038 5.30496C57.8594 5.56051 58.0035 5.90675 58.0047 6.26815H58Z" fill="#FB434C"/>
<path fill-rule="evenodd" clip-rule="evenodd" d="M58 47.8753V52.1659C57.9988 52.5272 57.8546 52.8735 57.5991 53.129C57.3435 53.3846 56.9973 53.5287 56.6359 53.5299H1.3641C1.0027 53.5287 0.656457 53.3846 0.400909 53.129C0.14536 52.8735 0.00124407 52.5272 0 52.1659L0 47.8753C0.00124407 47.5139 0.14536 47.1677 0.400909 46.9121C0.656457 46.6566 1.0027 46.5125 1.3641 46.5112H56.6406C57.002 46.5125 57.3483 46.6566 57.6038 46.9121C57.8594 47.1677 58.0035 47.5139 58.0047 47.8753H58Z" fill="#33A867"/>
<path fill-rule="evenodd" clip-rule="evenodd" d="M5.66414 3.26106e-05H9.95939C10.3216 3.04571e-05 10.6691 0.143596 10.9256 0.399279C11.1822 0.654962 11.327 1.00191 11.3282 1.36413V56.6407C11.327 57.0021 11.1828 57.3483 10.9273 57.6038C10.6718 57.8594 10.3255 58.0035 9.96411 58.0047H5.66414C5.48399 58.006 5.30537 57.9717 5.13851 57.9037C4.97166 57.8358 4.81985 57.7356 4.69181 57.6089C4.56376 57.4821 4.46199 57.3314 4.39234 57.1652C4.32268 56.9991 4.28651 56.8208 4.28589 56.6407V1.36413C4.28651 1.18397 4.32268 1.00571 4.39234 0.839567C4.46199 0.673422 4.56376 0.522662 4.69181 0.395932C4.81985 0.269202 4.97166 0.168995 5.13851 0.101058C5.30537 0.0331204 5.48399 -0.0012109 5.66414 3.26106e-05Z" fill="#47BCFF"/>
<path fill-rule="evenodd" clip-rule="evenodd" d="M48.0594 0H52.3547C52.7161 0.00124407 53.0623 0.14536 53.3178 0.400909C53.5734 0.656457 53.7175 1.0027 53.7187 1.3641V56.6406C53.7175 57.002 53.5734 57.3483 53.3178 57.6038C53.0623 57.8594 52.7161 58.0035 52.3547 58.0047H48.0594C47.698 58.0035 47.3518 57.8594 47.0962 57.6038C46.8407 57.3483 46.6966 57.002 46.6953 56.6406V1.3641C46.6966 1.0027 46.8407 0.656457 47.0962 0.400909C47.3518 0.14536 47.698 0.00124407 48.0594 0V0Z" fill="#FDBA21"/>
</g>
<defs>
<clipPath id="clip0_120_203">
<rect width="58" height="58" fill="white"/>
</clipPath>
</defs>
</svg>
