<svg width="14" height="19" viewBox="0 0 14 19" fill="none" xmlns="http://www.w3.org/2000/svg">
<path fill-rule="evenodd" clip-rule="evenodd" d="M1.48712 5.74577H12.6009C12.6901 5.74163 12.7795 5.74994 12.8671 5.77051C13.0119 5.80751 13.1448 5.8911 13.2505 6.01172C13.3734 6.14863 13.4507 6.33152 13.4689 6.52816C13.4722 6.6025 13.4696 6.67705 13.4609 6.75081L12.5143 18.1388V18.1589V18.2021C12.5081 18.2492 12.4992 18.2956 12.4877 18.3413V18.3506C12.4375 18.5302 12.3404 18.6873 12.2099 18.8001C12.0795 18.9128 11.922 18.9757 11.7595 18.9799H2.30587C2.24968 18.9767 2.19392 18.9669 2.13946 18.9505C2.08594 18.9319 2.0342 18.9071 1.98503 18.8763C1.86898 18.7988 1.77097 18.6895 1.69952 18.558C1.62806 18.4265 1.58532 18.2768 1.57498 18.1217L0.643071 6.75854C0.632437 6.67357 0.629759 6.58751 0.635083 6.50187C0.653708 6.30796 0.730536 6.12785 0.852086 5.99316C0.962224 5.86882 1.10089 5.784 1.25148 5.74886C1.33013 5.73289 1.40997 5.72616 1.48978 5.72876L1.48712 5.74577ZM0.752238 1.36068H4.94185V0.927734C4.94119 0.913829 4.94119 0.899892 4.94185 0.885986C4.95024 0.652944 5.0339 0.43212 5.17616 0.267497C5.32549 0.0962946 5.52682 0.000207387 5.73664 0L8.31538 0H8.35532C8.56017 0.0119108 8.75323 0.114888 8.8945 0.287597C9.03577 0.460307 9.11442 0.689514 9.11416 0.927734V1.36068H13.3743H13.4263C13.577 1.375 13.7182 1.45228 13.8237 1.57821C13.9292 1.70415 13.9919 1.87021 14.0001 2.04565C14.0001 2.07349 14.0001 2.09513 14.0001 2.12297V3.64754C14.0001 3.75375 13.9637 3.85562 13.8991 3.93072C13.8344 4.00582 13.7467 4.04801 13.6552 4.04801H0.344859C0.254098 4.04802 0.166995 4.00647 0.102444 3.93236C0.0378939 3.85826 0.00110241 3.75759 5.11274e-05 3.65218V2.09204C-0.00131913 2.0761 -0.00131913 2.06005 5.11274e-05 2.04411C0.00917205 1.88129 0.0650076 1.72671 0.15864 1.60507C0.252273 1.48343 0.378301 1.40174 0.516597 1.37305C0.594698 1.36115 0.673531 1.35701 0.752238 1.36068ZM6.35703 9.50928C6.3731 9.32768 6.44659 9.15946 6.56327 9.03715C6.67996 8.91484 6.83156 8.84714 6.98873 8.84714C7.14591 8.84714 7.29751 8.91484 7.4142 9.03715C7.53088 9.15946 7.60437 9.32768 7.62044 9.50928V15.2303C7.60437 15.4119 7.53088 15.5801 7.4142 15.7024C7.29751 15.8247 7.14591 15.8924 6.98873 15.8924C6.83156 15.8924 6.67996 15.8247 6.56327 15.7024C6.44659 15.5801 6.3731 15.4119 6.35703 15.2303V9.50928ZM9.51622 9.47835C9.53368 9.29301 9.61336 9.12315 9.73798 9.00562C9.86261 8.88809 10.0221 8.83238 10.1819 8.85059C10.2604 8.84977 10.3382 8.86699 10.4109 8.90127C10.4837 8.93554 10.5498 8.98618 10.6056 9.05028C10.6614 9.11438 10.7058 9.19066 10.7361 9.27474C10.7664 9.35883 10.7821 9.44904 10.7823 9.5402L10.516 15.2612C10.4989 15.4467 10.4193 15.6168 10.2946 15.7345C10.1699 15.8521 10.0102 15.9076 9.85037 15.889C9.77189 15.8898 9.69404 15.8726 9.62131 15.8383C9.54859 15.804 9.48241 15.7534 9.42661 15.6893C9.3708 15.6252 9.32646 15.5489 9.29614 15.4648C9.26583 15.3808 9.25013 15.2905 9.24996 15.1994L9.51622 9.47835ZM3.32831 9.5402C3.32831 9.44912 3.34384 9.35893 3.37401 9.27486C3.40419 9.19079 3.4484 9.11449 3.5041 9.05037C3.5598 8.98625 3.62589 8.93558 3.69854 8.90129C3.7712 8.867 3.84898 8.84977 3.9274 8.85059C4.08716 8.83238 4.24666 8.88809 4.37129 9.00562C4.49591 9.12315 4.57559 9.29301 4.59305 9.47835L4.85931 15.1994C4.85914 15.2905 4.84344 15.3808 4.81313 15.4648C4.78281 15.5489 4.73847 15.6252 4.68266 15.6893C4.62686 15.7534 4.56068 15.804 4.48795 15.8383C4.41523 15.8726 4.33738 15.8898 4.25889 15.889C4.09906 15.9076 3.93937 15.8521 3.81467 15.7345C3.68996 15.6168 3.61037 15.4467 3.59324 15.2612L3.32698 9.5402H3.32831Z" fill="#8B8B8B"/>
</svg>
