<svg width="49" height="50" viewBox="0 0 49 50" fill="none" xmlns="http://www.w3.org/2000/svg">
<g clip-path="url(#clip0_116_629)">
<path fill-rule="evenodd" clip-rule="evenodd" d="M24.4991 0.622939C10.9709 0.622939 0 11.8158 0 25.6219C0 36.6682 7.0191 46.0358 16.7539 49.343C17.9792 49.5746 18.4295 48.7995 18.4295 48.1388C18.4295 47.5427 18.4051 45.5736 18.3951 43.4863C11.5786 44.9987 10.1417 40.5354 10.1417 40.5354C9.02756 37.6453 7.42151 36.8767 7.42151 36.8767C5.19875 35.3236 7.59064 35.3578 7.59064 35.3578C10.0503 35.5332 11.3453 37.9323 11.3453 37.9323C13.5319 41.7543 17.0785 40.6479 18.4756 40.0103C18.6963 38.3946 19.3293 37.291 20.031 36.6663C14.5889 36.0361 8.86839 33.8916 8.86839 24.3116C8.86839 21.583 9.82695 19.3518 11.3923 17.6022C11.1373 16.9711 10.2981 14.4299 11.6283 10.9871C11.6283 10.9871 13.6855 10.3144 18.368 13.5496C20.3213 12.9968 22.4165 12.7182 24.4973 12.709C26.5798 12.7182 28.6787 12.9959 30.6347 13.5496C35.3109 10.3163 37.3663 10.9871 37.3663 10.9871C38.6983 14.4308 37.8628 16.9739 37.6077 17.6023C39.1785 19.3518 40.1289 21.583 40.1289 24.3116C40.1289 33.9137 34.3957 36.0249 28.9419 36.6441C29.8209 37.4192 30.6058 38.9408 30.6058 41.2717C30.6058 44.6148 30.5778 47.3092 30.5778 48.1314C30.5778 48.7967 31.0191 49.5746 32.2615 49.3309C41.9908 46.022 49.0009 36.6533 49.0009 25.6136C49.0009 11.8093 38.0319 0.614502 24.5009 0.614502L24.4992 0.622861L24.4991 0.622939Z" fill="black"/>
</g>
<defs>
<clipPath id="clip0_116_629">
<rect width="49" height="50" fill="white"/>
</clipPath>
</defs>
</svg>
