<?xml version="1.0" ?><!DOCTYPE svg  PUBLIC '-//W3C//DTD SVG 1.1//EN'  'http://www.w3.org/Graphics/SVG/1.1/DTD/svg11.dtd'><svg height="512px" style="enable-background:new 0 0 512 512;" version="1.1" viewBox="0 0 512 512" width="512px" xml:space="preserve" xmlns="http://www.w3.org/2000/svg" xmlns:xlink="http://www.w3.org/1999/xlink"><g id="_x31_79-itunes"><g><path d="M375.035,36.001H136.966c-55.885,0-100.964,45.08-100.964,100.964v238.07    c0,55.883,45.079,100.964,100.964,100.964h238.069c55.982,0,100.963-45.081,100.963-100.964v-238.07    C475.998,81.081,430.919,36.001,375.035,36.001z" style="fill:#C863F4;"/><g><path d="M255.607,429.82c-98.174,0-178.043-79.958-178.043-178.24     c0-98.228,79.869-178.143,178.043-178.143c98.229,0,178.143,79.959,178.143,178.241     C433.75,349.906,353.836,429.82,255.607,429.82z M255.607,93.438c-87.146,0-158.043,70.942-158.043,158.143     c0,87.254,70.897,158.24,158.043,158.24c87.2,0,158.143-70.942,158.143-158.142C413.75,164.425,342.808,93.438,255.607,93.438z" style="fill:#FFFFFF;"/></g><path d="M326.52,311.283c-3,12.75-18.775,19.874-31.713,22.312c-11.346,2.063-20.813,2.625-29.907-4.688    c-11.063-9.375-11.251-24.751-1.313-34.501c7.876-7.5,8.155-9,24.751-11.998c2.812-0.47,5.248-1.127,7.217-3.47    c3-3.376,2.328-1.876,2.328-75.75c0-5.251-2.531-6.657-7.875-5.721c-3.749,0.657-62.207,16.033-62.207,16.033    c-4.688,1.03-6.282,2.437-6.282,7.779c0,108.847-7.951,103.876-9.546,111.094c-1.969,8.439-12.042,14.814-18.887,18.379    c-7.781,4.311-21.938,6.187-29.438,4.872c-20.063-3.749-27.095-26.904-13.5-40.218c7.875-7.502,16.594-9.001,33.188-12    c2.813-0.469,5.251-1.126,7.22-3.468c4.688-5.345,0.731-119.064,2.326-125.346c0.373-2.438,1.404-4.499,3.28-6    c1.969-1.594,5.438-2.531,6.28-2.531c94.69-17.813,112.844-20.063,114.532-20.063c5.343-0.374,8.437,2.813,8.437,8.157    C325.317,314.094,327.833,305.47,326.52,311.283L326.52,311.283z" style="fill:#FFFEFF;"/></g></g><g id="Layer_1"/></svg>