<svg width="26" height="39" viewBox="0 0 26 39" fill="none" xmlns="http://www.w3.org/2000/svg">
<path d="M10.5 33.75C10.5 36.3625 8.25 38.5 5.5 38.5C2.75 38.5 0.5 36.3625 0.5 33.75C0.5 31.1375 2.75 29 5.5 29C8.25 29 10.5 31.1375 10.5 33.75ZM5.5 14.75C2.75 14.75 0.5 16.8875 0.5 19.5C0.5 22.1125 2.75 24.25 5.5 24.25C8.25 24.25 10.5 22.1125 10.5 19.5C10.5 16.8875 8.25 14.75 5.5 14.75ZM5.5 0.5C2.75 0.5 0.5 2.6375 0.5 5.25C0.5 7.8625 2.75 10 5.5 10C8.25 10 10.5 7.8625 10.5 5.25C10.5 2.6375 8.25 0.5 5.5 0.5ZM20.5 10C23.25 10 25.5 7.8625 25.5 5.25C25.5 2.6375 23.25 0.5 20.5 0.5C17.75 0.5 15.5 2.6375 15.5 5.25C15.5 7.8625 17.75 10 20.5 10ZM20.5 14.75C17.75 14.75 15.5 16.8875 15.5 19.5C15.5 22.1125 17.75 24.25 20.5 24.25C23.25 24.25 25.5 22.1125 25.5 19.5C25.5 16.8875 23.25 14.75 20.5 14.75ZM20.5 29C17.75 29 15.5 31.1375 15.5 33.75C15.5 36.3625 17.75 38.5 20.5 38.5C23.25 38.5 25.5 36.3625 25.5 33.75C25.5 31.1375 23.25 29 20.5 29Z" fill="#E5ECFC"/>
</svg>
