<svg width="26" height="26" viewBox="0 0 26 26" fill="none" xmlns="http://www.w3.org/2000/svg">
<g clip-path="url(#clip0_1_1521)">
<path d="M0.524765 9.31569H1.48115V7.10664C1.48115 7.03348 1.49479 6.96105 1.52129 6.89349C1.54779 6.82593 1.58663 6.76458 1.63559 6.71296C1.68454 6.66133 1.74263 6.62045 1.80654 6.59266C1.87045 6.56487 1.93891 6.55072 2.008 6.55101H2.93899V5.22469C2.93955 5.07712 2.99531 4.9358 3.09405 4.83167C3.19279 4.72753 3.32648 4.66907 3.46585 4.66907H11.9781C12.1172 4.66907 12.2507 4.72761 12.3491 4.83181C12.4475 4.936 12.5028 5.07733 12.5028 5.22469V6.55101H23.9921C24.1312 6.55101 24.2647 6.60955 24.3631 6.71375C24.4615 6.81795 24.5168 6.95928 24.5168 7.10664V9.31569H25.4753C25.548 9.31474 25.6201 9.33001 25.6869 9.36049C25.7657 9.38623 25.8338 9.44005 25.8794 9.51284C25.9601 9.61275 26.0043 9.73988 26.0043 9.87131C26.0043 9.91127 26.0001 9.95111 25.9916 9.99005L24.155 24.2861C24.0534 25.5564 23.5202 26 22.475 26H3.11038C1.95722 26 1.54251 25.4467 1.41767 24.2682L2.57596e-05 9.92956C-0.00717962 9.82753 0.0118302 9.72534 0.0550388 9.63382C0.0739144 9.56307 0.111729 9.49961 0.163918 9.4511C0.216106 9.4026 0.280438 9.37113 0.349147 9.36049C0.388201 9.34607 0.428653 9.3363 0.469752 9.33137H0.524765V9.31569Z" fill="#DE9C2D"/>
<path d="M1.91699 7.01928V9.36723H23.973V7.01928H12.5874C12.4478 7.01869 12.3142 6.95972 12.2155 6.85523C12.1168 6.75074 12.0611 6.60919 12.0605 6.46141V5.13733H3.44043V6.46141C3.44043 6.60898 3.38521 6.75054 3.28687 6.85509C3.18852 6.95965 3.05505 7.01868 2.91569 7.01928H1.91699Z" fill="#DE9C2D"/>
<path d="M4.93018 9.3739V3.68101C4.9299 3.57619 4.94919 3.47234 4.98695 3.37544C5.0247 3.27854 5.08018 3.1905 5.15018 3.11637C5.22018 3.04225 5.30333 2.98351 5.39485 2.94354C5.48636 2.90356 5.58444 2.88313 5.68343 2.88343H10.3109V9.38063L4.93018 9.3739Z" fill="#737373"/>
<path d="M10.3109 3.41663H5.43799V9.36492H10.3109V3.41663Z" fill="#F5F5F5"/>
<path d="M7.59196 5.79822H10.3109V6.52187H7.59196C7.16879 6.52187 7.1836 5.79822 7.59196 5.79822ZM7.59196 7.95126H10.3109V8.67491H7.58773C7.16456 8.67491 7.17937 7.95126 7.58773 7.95126H7.59196Z" fill="#737373"/>
<path d="M9.79443 9.37389V0.815511C9.79499 0.599018 9.87661 0.391595 10.0214 0.238721C10.1662 0.0858472 10.3623 -8.12506e-07 10.5667 0L18.4082 0C18.4716 4.19451e-05 18.5342 0.0151633 18.5913 0.044247C18.6484 0.0733307 18.6987 0.115634 18.7383 0.168031L22.5469 4.08203C22.6388 4.10872 22.7195 4.16748 22.776 4.2488C22.8324 4.33013 22.8613 4.42925 22.8579 4.53012V9.37389H9.79443Z" fill="#737373"/>
<path d="M22.3268 9.34027V4.60852H18.8441C18.7309 4.6056 18.6233 4.55592 18.5442 4.4701C18.4651 4.38429 18.4209 4.26913 18.4209 4.14924V0.564575H10.3213V9.34027H22.3268Z" fill="#F5F5F5"/>
<path d="M12.5197 2.98645H15.9961C16.4193 2.98645 16.4193 3.72579 15.9961 3.72579H12.5197C12.0965 3.72579 12.0965 2.98645 12.5197 2.98645ZM12.5197 7.39558H18.7975C19.2207 7.39558 19.2207 8.13492 18.7975 8.13492H12.5176C12.0944 8.13492 12.0944 7.40231 12.5176 7.39334L12.5197 7.39558ZM12.5197 5.19102H16.7303C17.1535 5.19102 17.1535 5.93035 16.7303 5.93035H12.5176C12.0944 5.93035 12.0944 5.19102 12.5176 5.19102H12.5197Z" fill="#737373"/>
<path d="M0.768066 10.1021L2.264 24.3332C2.29997 24.7006 2.52637 25.0658 2.89876 25.0658H22.64C23.0251 25.0658 23.2367 24.6782 23.2747 24.3175L25.196 10.1021H0.768066Z" fill="#FAD460"/>
</g>
<defs>
<clipPath id="clip0_1_1521">
<rect width="26" height="26" fill="white"/>
</clipPath>
</defs>
</svg>
