<svg width="27" height="25" viewBox="0 0 27 25" fill="none" xmlns="http://www.w3.org/2000/svg">
<path d="M13.4923 0.214867C15.2672 0.211808 17.0251 0.515943 18.6644 1.10967C21.9698 2.31184 24.5973 4.60466 25.9749 7.48907L25.9952 7.53617C27.2003 10.1066 27.3253 12.966 26.3482 15.609C25.8504 15.1855 25.278 14.8343 24.6527 14.569C25.2887 12.4532 25.123 10.2145 24.1805 8.18765L24.1602 8.14644C23.5771 6.92441 22.7244 5.8143 21.6507 4.87923C20.0428 3.48019 17.9986 2.52503 15.7729 2.13282C13.5472 1.74061 11.2384 1.92869 9.13434 2.67361L9.08711 2.69128C7.68801 3.19851 6.41668 3.94056 5.34526 4.8753C3.74112 6.27874 2.646 8.06326 2.19652 10.0063C1.74704 11.9493 1.96309 13.9648 2.81771 15.8013L2.83795 15.8406C3.20393 16.612 3.6791 17.3404 4.25239 18.0089C5.82648 17.277 8.48671 17.3437 10.0068 16.4175C10.1248 16.2517 10.2271 16.0778 10.3127 15.8975C10.4678 15.5894 10.6072 15.2539 10.6972 15.0262C10.3283 14.6304 9.9924 14.212 9.69202 13.7743C9.20405 13.0973 8.11792 11.8257 8.09543 11.0703C8.08781 10.9139 8.12167 10.7581 8.19438 10.615C8.27063 10.468 8.39206 10.3424 8.54517 10.252C8.62213 10.2071 8.70523 10.1709 8.79253 10.1441C8.72127 9.29521 8.70476 8.44354 8.74306 7.59307C8.76652 7.39869 8.80864 7.20636 8.86899 7.01812C9.1572 6.22332 9.76921 5.54824 10.5893 5.12059C11.0362 4.87427 11.5217 4.68588 12.0307 4.56134C12.3545 4.48285 11.7541 3.58019 12.0891 3.55076C13.7172 3.3977 16.3212 4.68692 17.4501 5.75245C18.0597 6.35623 18.4095 7.12632 18.4395 7.93059L18.3765 10.2363C18.5085 10.2657 18.6286 10.3266 18.7231 10.4122C18.8176 10.4978 18.8829 10.6048 18.9117 10.721C19.1568 11.5608 17.8706 13.0345 17.4546 13.631C17.0617 14.2494 16.5845 14.8239 16.0334 15.3422L16.184 15.5384C16.3482 15.7483 16.5146 15.9583 16.7035 16.1565C15.7589 17.1915 15.2591 18.4823 15.2907 19.8052C15.3223 21.1281 15.8834 22.3996 16.8766 23.3993C14.0394 24.0412 11.0398 23.8593 8.33155 22.8813C6.69456 22.2897 5.20691 21.4229 3.95331 20.3303C2.69732 19.2353 1.70224 17.9342 1.02549 16.5019L1.00525 16.4567C-0.342058 13.5839 -0.334784 10.3631 1.02549 7.49496C1.70299 6.06629 2.69634 4.76805 3.94881 3.67438C5.20212 2.58144 6.68984 1.71462 8.32705 1.12341L8.37877 1.10575C10.0004 0.520479 11.7375 0.21783 13.4923 0.214867Z" fill="#1A1A1A"/>
<path fill-rule="evenodd" clip-rule="evenodd" d="M21.5 14.6555C22.5879 14.6555 23.6513 14.9453 24.5558 15.4882C25.4603 16.0312 26.1653 16.8029 26.5815 17.7057C26.9977 18.6085 27.1065 19.602 26.8941 20.5603C26.6817 21.5187 26.1576 22.399 25.3882 23.0898C24.6188 23.7806 23.6386 24.251 22.5715 24.4414C21.5045 24.6317 20.3986 24.5336 19.3936 24.1594C18.3887 23.7851 17.5298 23.1516 16.9258 22.3389C16.3217 21.5262 15.9995 20.5709 16 19.5937C16 18.945 16.1423 18.3027 16.4187 17.7034C16.6951 17.1042 17.1003 16.5597 17.611 16.1011C18.1218 15.6426 18.7281 15.2789 19.3954 15.0308C20.0627 14.7828 20.7778 14.6552 21.5 14.6555ZM19.9269 18.8799L20.7587 19.5791L22.9336 17.5963C23.1265 17.4231 23.245 17.2832 23.4797 17.5003L24.2441 18.2037C24.4951 18.4249 24.4765 18.5564 24.2441 18.763L21.1956 21.4575C20.696 21.8979 20.782 21.925 20.2661 21.4742L18.6396 20.0132C18.617 19.9922 18.5996 19.9672 18.5885 19.9398C18.5773 19.9124 18.5727 19.8832 18.5749 19.8541C18.5771 19.825 18.586 19.7966 18.6012 19.7708C18.6163 19.745 18.6373 19.7224 18.6628 19.7043L19.5481 18.8694C19.6829 18.7421 19.7805 18.7547 19.9269 18.8694V18.8799Z" fill="#10A64A"/>
</svg>
