<svg width="29" height="21" viewBox="0 0 29 21" fill="none" xmlns="http://www.w3.org/2000/svg">
<g clip-path="url(#clip0_1_1535)">
<path fill-rule="evenodd" clip-rule="evenodd" d="M20.3906 0.00127816L21.6101 0.0618748C22.1805 0.089468 22.6228 0.558551 22.5928 1.1023L22.5345 2.18168C23.0805 2.36671 23.5903 2.62046 24.0553 2.9294L24.9383 2.16923C25.3625 1.80403 26.0213 1.83595 26.4042 2.24173L27.2215 3.1074C27.6044 3.51264 27.5698 4.14241 27.1462 4.50762L26.1986 5.32513C26.4308 5.78231 26.6052 6.27141 26.714 6.78216L28.015 6.84654C28.5854 6.87413 29.0278 7.34213 28.9983 7.8875L28.9354 9.05183C28.9065 9.59666 28.4155 10.0192 27.8457 9.99108L26.5316 9.92615C26.3682 10.412 26.1422 10.8765 25.8587 11.3091L26.7293 12.2315C27.1116 12.6362 27.0776 13.2665 26.6534 13.6317L25.7471 14.413C25.3229 14.7782 24.6636 14.7447 24.2813 14.3405L23.4583 13.4694C22.9751 13.7216 22.4552 13.9163 21.9097 14.0446V11.0055C23.0431 10.5337 23.8616 9.48087 23.9295 8.22133C24.0253 6.44725 22.5973 4.93504 20.7401 4.8436C19.622 4.78896 18.603 5.26129 17.9483 6.03335H14.2004C14.3941 5.48636 14.6648 4.97562 15.0001 4.51086L14.4043 3.88001C14.022 3.47531 14.0559 2.84499 14.4796 2.47979L15.387 1.69853C15.8101 1.33386 16.47 1.36633 16.8523 1.77103L17.4969 2.45274C18.0429 2.19629 18.6314 2.01179 19.2476 1.91061L19.3003 0.941068C19.3303 0.396239 19.8203 -0.026315 20.3906 0.00127816ZM10.6615 13.9077H9.19391C9.1469 13.9077 9.11065 13.9434 9.11065 13.9883V16.9424C9.11065 16.9873 9.1469 17.023 9.19391 17.023H10.6598C10.7068 17.023 10.7436 16.9873 10.7436 16.9424V13.9883C10.7436 13.9439 10.7085 13.9077 10.6615 13.9077ZM1.12771 7.637H6.40719V6.24328C6.40719 5.82343 6.76629 5.48041 7.20525 5.48041H12.6501C13.0891 5.48041 13.4482 5.82343 13.4482 6.24328V7.637H18.7277C19.345 7.637 19.8554 8.12502 19.8554 8.71422V11.3166C18.5804 12.1515 17.2652 12.8629 15.9092 13.4435C14.5459 14.0267 13.1401 14.479 11.6855 14.7912V13.7508C11.6855 13.2703 11.2805 12.8829 10.7776 12.8829H9.07609C8.57312 12.8829 8.16815 13.2703 8.16815 13.7508V14.7674C6.7527 14.4574 5.38086 14.0132 4.05094 13.4435C2.65814 12.8478 1.3084 12.1114 0 11.2468V8.71422C0 8.12394 0.510332 7.637 1.12771 7.637ZM19.8554 12.8602V19.923C19.8555 20.0643 19.8261 20.2043 19.769 20.3347C19.7119 20.4651 19.6283 20.5834 19.5229 20.6826C19.3173 20.8779 19.0358 21.0002 18.7277 21.0002H1.12771C0.816191 21.0002 0.535254 20.8779 0.333047 20.6826C0.127441 20.4862 0 20.2178 0 19.923V12.7953C1.11299 13.477 2.25883 14.0732 3.43695 14.5775C4.95775 15.2294 6.53463 15.7277 8.16928 16.061V17.1799C8.16928 17.6603 8.57482 18.0477 9.07779 18.0477H10.7793C11.2817 18.0477 11.6872 17.6603 11.6872 17.1799V16.0816C13.353 15.7483 14.9729 15.2419 16.5255 14.5764C17.6662 14.0884 18.7758 13.5143 19.8554 12.8602ZM7.81584 6.51921C7.76203 6.51921 7.71445 6.5652 7.71445 6.6166V7.60725H12.1398V6.6166C12.1398 6.56466 12.0916 6.51921 12.0384 6.51921H7.81584Z" fill="black"/>
</g>
<defs>
<clipPath id="clip0_1_1535">
<rect width="29" height="21" fill="white"/>
</clipPath>
</defs>
</svg>
