<?xml version="1.0" ?><svg height="512" id="Layer_1" version="1.1" viewBox="0 0 512 512" width="512" xml:space="preserve" xmlns="http://www.w3.org/2000/svg" xmlns:cc="http://creativecommons.org/ns#" xmlns:dc="http://purl.org/dc/elements/1.1/" xmlns:inkscape="http://www.inkscape.org/namespaces/inkscape" xmlns:rdf="http://www.w3.org/1999/02/22-rdf-syntax-ns#" xmlns:sodipodi="http://sodipodi.sourceforge.net/DTD/sodipodi-0.dtd" xmlns:svg="http://www.w3.org/2000/svg" xmlns:xlink="http://www.w3.org/1999/xlink"><defs id="defs13"><linearGradient gradientTransform="translate(1635.9966,-2013.2351)" gradientUnits="userSpaceOnUse" id="linearGradient3006" x1="256.00049" x2="256.00049" xlink:href="#SVGID_1_-8" y1="512" y2="0.00048828131"/><linearGradient gradientUnits="userSpaceOnUse" id="SVGID_1_-8" x1="256.00049" x2="256.00049" y1="512" y2="0.00048828131"><stop id="stop4-8" offset="0" style="stop-color:#0c80b1;stop-opacity:1"/><stop id="stop6-2" offset="1" style="stop-color:#11a7df;stop-opacity:1"/></linearGradient><linearGradient gradientUnits="userSpaceOnUse" id="linearGradient3471" x1="256.00049" x2="256.00049" xlink:href="#SVGID_1_-8" y1="512" y2="0.00048828131"/><linearGradient gradientTransform="matrix(0,-1,-1,0,512,512)" gradientUnits="userSpaceOnUse" id="linearGradient3781" x1="-1.8544069e-006" x2="512" xlink:href="#SVGID_1_-8-1" y1="256" y2="256"/><linearGradient gradientUnits="userSpaceOnUse" id="SVGID_1_-8-1" x1="256.00049" x2="256.00049" y1="512" y2="0.00048828131"><stop id="stop4-8-7" offset="0" style="stop-color:#0c80b1;stop-opacity:1"/><stop id="stop6-2-4" offset="1" style="stop-color:#11a7df;stop-opacity:1"/></linearGradient><linearGradient gradientTransform="matrix(0,-1,-1,0,512,512)" gradientUnits="userSpaceOnUse" id="linearGradient3026" x1="-1.8544069e-006" x2="512" xlink:href="#SVGID_1_-8-1" y1="256" y2="256"/><linearGradient gradientTransform="matrix(0,-1,-1,0,1236.6102,130.16949)" gradientUnits="userSpaceOnUse" id="linearGradient3030" x1="-1.8544069e-006" x2="512" xlink:href="#SVGID_1_-8-1" y1="256" y2="256"/><linearGradient gradientUnits="userSpaceOnUse" id="linearGradient3040" x1="256.00049" x2="256.00049" xlink:href="#SVGID_1_-8" y1="512" y2="0.00048828131"/><linearGradient gradientTransform="matrix(0,-1,-1,0,511.9852,512.01324)" gradientUnits="userSpaceOnUse" id="linearGradient3042" x1="-1.8544069e-006" x2="512" xlink:href="#SVGID_1_-8-1" y1="256" y2="256"/></defs><linearGradient gradientTransform="matrix(0,1,-1,0,512,0)" gradientUnits="userSpaceOnUse" id="SVGID_1_" x1="0" x2="512" xlink:href="#SVGID_1_-8" y1="256" y2="256"><stop id="stop4" offset="0" style="stop-color:#00616f;stop-opacity:1"/><stop id="stop6" offset="1" style="stop-color:#284660;stop-opacity:1"/></linearGradient><g id="g3044"><path d="M 73.125,-9.273985e-7 C 32.73606,-9.273985e-7 0,32.767309 0,73.156249 L 0,438.875 C 0,479.26394 32.73606,512 73.125,512 l 365.7188,0 C 479.2326,512.009 512,479.26394 512,438.875 L 512,73.156249 C 512,32.758779 479.2326,-9.273985e-7 438.8438,-9.273985e-7 l -365.7188,0 z" id="path5" style="fill:url(#linearGradient3042);fill-opacity:1"/><path d="m 129,149.08056 c 50,-3.212 94.448,-14.875 91.195,-98.874999 H 265 v 98.999999 h 118 v 78 H 265 v 114.978 c 13,76.784 90,50.163 118,23.015 0,0 0,65.219 0,65.22 -17,13.377 -43.053,22.979 -63.807,27.778 -20.145,4.657 -41.209,4.716 -61.454,0.624 -30.249,-6.112 -60.247,-20.486 -74.428,-49.315 -9.508,-19.332 -15.311,-45.798 -15.311,-67.322 0,-0.01 0,-114.978 0,-114.978 h -39 v -78.125 z" id="path26453_1_" style="fill:#ffffff"/></g></svg>